<svg width="148" height="35" viewBox="0 0 148 35" fill="none" xmlns="http://www.w3.org/2000/svg">
<path d="M9.904 25.36H22.432V34H0.736V0.879997H9.904V25.36ZM45.6285 34.576C35.5965 34.576 28.0125 27.184 28.0125 17.44C28.0125 7.696 35.5965 0.303999 45.6285 0.303999C55.6605 0.303999 63.2445 7.696 63.2445 17.44C63.2445 27.184 55.6605 34.576 45.6285 34.576ZM45.6285 25.744C50.2845 25.744 53.8365 22.192 53.8365 17.44C53.8365 12.688 50.2845 9.136 45.6285 9.136C40.9725 9.136 37.4205 12.688 37.4205 17.44C37.4205 22.192 40.9725 25.744 45.6285 25.744Z" fill="black"/>
<path d="M88.4611 14.272H104.925V17.44C104.925 27.328 97.8691 34.576 88.0771 34.576C78.1411 34.576 70.6531 27.184 70.6531 17.44C70.6531 7.696 78.2371 0.303999 88.2691 0.303999C93.9331 0.303999 98.9731 2.608 101.901 6.352L94.9891 11.872C93.4531 10.144 91.1011 9.04 88.4611 9.04C83.7091 9.04 80.0611 12.64 80.0611 17.44C80.0611 22.24 83.6611 25.84 88.4131 25.84C91.2931 25.84 93.6451 24.496 94.8451 22.432H88.4611V14.272ZM129.691 34.576C119.659 34.576 112.075 27.184 112.075 17.44C112.075 7.696 119.659 0.303999 129.691 0.303999C139.723 0.303999 147.307 7.696 147.307 17.44C147.307 27.184 139.723 34.576 129.691 34.576ZM129.691 25.744C134.347 25.744 137.899 22.192 137.899 17.44C137.899 12.688 134.347 9.136 129.691 9.136C125.035 9.136 121.483 12.688 121.483 17.44C121.483 22.192 125.035 25.744 129.691 25.744Z" fill="#FFBAAE"/>
</svg>
